<svg width="40" height="51" viewBox="0 0 40 51" fill="none" xmlns="http://www.w3.org/2000/svg">
<g clip-path="url(#clip0_1103_32351)">
<path d="M1.73194 31.6143L14.291 50.0395H2.87367C1.16107 50.0395 -0.157827 48.5631 0.0390238 46.8702L1.73194 31.6143Z" fill="#51B098"/>
<path fill-rule="evenodd" clip-rule="evenodd" d="M39.9805 46.8504L35.8269 11.8504C35.6498 10.4134 34.4293 9.33071 32.9923 9.33071H29.9608C29.9608 9.0748 29.5474 0 23.1104 0C21.7718 0 20.6891 0.413386 19.823 1.06299C18.9372 0.413386 17.8545 0 16.4765 0C10.337 0 9.68565 8.79298 9.64587 9.33014L9.64582 9.33071H6.77181C5.31511 9.33071 4.09464 10.4134 3.93716 11.8701L2.48047 24.9213L19.6065 50.0591H37.1458C38.8584 50.0394 40.197 48.5433 39.9805 46.8504ZM10.0789 9.33071C10.0986 8.95669 10.6891 0.452756 16.4765 0.452756C17.6773 0.452756 18.6616 0.807087 19.4687 1.35827C16.6717 3.84444 16.2895 8.93704 16.261 9.31789L16.26 9.33071H10.0789ZM16.7128 9.33071L16.7129 9.32848C16.7343 9.02899 17.0939 3.99001 19.8427 1.65354C22.6379 4.01575 22.8939 9.09449 22.8939 9.33071H16.7128ZM23.3466 9.33071L23.3449 9.30343C23.3141 8.80433 23.0063 3.82117 20.197 1.35827C20.9844 0.787402 21.949 0.452756 23.1104 0.452756C29.075 0.452756 29.508 9.01575 29.508 9.33071H23.3466ZM22.0673 22.5787C22.1263 23.5434 21.6932 24.2521 20.9058 24.7837C20.6301 24.9608 20.3152 25.0199 19.9608 24.9805C19.9706 24.8919 19.9756 24.8033 19.9805 24.7148C19.9854 24.6262 19.9903 24.5376 20.0002 24.449C20.1773 23.504 20.9451 22.7953 21.8704 22.5984C21.8803 22.5984 21.8852 22.5935 21.8901 22.5886C21.895 22.5837 21.8999 22.5787 21.9098 22.5787H22.0673ZM22.8551 28.268C22.7764 27.323 23.1701 26.634 23.9576 26.1418C23.9576 26.132 23.9526 26.1221 23.9477 26.1123C23.9428 26.1025 23.9379 26.0926 23.9379 26.0828C23.3079 25.2559 22.4811 24.9803 21.4967 25.1378C21.1991 25.1848 20.914 25.2941 20.6215 25.4062C20.5464 25.435 20.4707 25.464 20.3943 25.4922C20.1777 25.5709 19.9808 25.5906 19.7643 25.5119C19.528 25.4134 19.2721 25.315 19.0162 25.2362C18.4453 25.0197 17.894 25.0787 17.3428 25.3347C16.5357 25.7284 16.1025 26.3781 15.8663 27.2049C15.6694 27.8939 15.7088 28.583 15.8466 29.272C16.0632 30.3745 16.5357 31.3588 17.2444 32.225C17.4216 32.4416 17.6184 32.6385 17.8547 32.796C18.1303 32.9731 18.4256 33.0519 18.7406 32.9534C19.0162 32.8747 19.2721 32.796 19.528 32.6975C19.9021 32.5794 20.2761 32.54 20.6502 32.6385C20.8667 32.6975 21.0636 32.7763 21.2605 32.855C21.5361 32.9534 21.8314 33.0322 22.1464 32.9731C22.5007 32.9141 22.7567 32.6975 22.9929 32.4219C23.3276 32.0282 23.6229 31.5951 23.8591 31.1423C23.9817 30.9125 24.0804 30.6827 24.1831 30.4436C24.2124 30.3755 24.242 30.3066 24.2726 30.2367C23.426 29.8233 22.9142 29.213 22.8551 28.268Z" fill="black"/>
</g>
<defs>
<clipPath id="clip0_1103_32351">
<rect width="40" height="50.0394" fill="white"/>
</clipPath>
</defs>
</svg>
