<svg width="46" height="58" viewBox="0 0 46 58" fill="none" xmlns="http://www.w3.org/2000/svg">
<g clip-path="url(#clip0_106_39)">
<path d="M1.97325 36.5118L16.2793 57.5H3.2738C1.32298 57.5 -0.179385 55.8182 0.0448481 53.8898L1.97325 36.5118Z" fill="#51B098"/>
<path fill-rule="evenodd" clip-rule="evenodd" d="M45.5417 53.8674L40.8104 13.9988C40.6086 12.3619 39.2183 11.1286 37.5814 11.1286H34.1282C34.1282 10.8371 33.6573 0.5 26.3249 0.5C24.8001 0.5 23.5669 0.970889 22.5802 1.71086C21.5712 0.970889 20.3379 0.5 18.7683 0.5C11.7747 0.5 11.0328 10.5161 10.9874 11.128L10.9874 11.1286H7.71359C6.05427 11.1286 4.66403 12.3619 4.48464 14.0212L2.82532 28.8879L22.3336 57.5224H42.3127C44.2636 57.5 45.7883 55.7958 45.5417 53.8674ZM11.4807 11.1286C11.5031 10.7026 12.1758 1.01574 18.7683 1.01574C20.1361 1.01574 21.2573 1.41935 22.1766 2.04721C18.9906 4.87919 18.5553 10.6801 18.5227 11.114L18.5216 11.1286H11.4807ZM19.0374 11.1286L19.0375 11.1261C19.0619 10.785 19.4715 5.04504 22.6027 2.38356C25.7868 5.07435 26.0783 10.8596 26.0783 11.1286H19.0374ZM26.594 11.1286L26.592 11.0975C26.5569 10.5289 26.2063 4.85268 23.0063 2.04721C23.9032 1.39693 25.002 1.01574 26.3249 1.01574C33.1192 1.01574 33.6125 10.7699 33.6125 11.1286H26.594ZM25.1365 26.2195C25.2038 27.3183 24.7105 28.1255 23.8135 28.7309C23.4996 28.9327 23.1408 29 22.7372 28.9552C22.7484 28.8543 22.754 28.7533 22.7596 28.6524C22.7652 28.5515 22.7708 28.4506 22.7821 28.3497C22.9839 27.2734 23.8584 26.4662 24.9123 26.2419C24.9235 26.2419 24.9291 26.2363 24.9347 26.2307C24.9403 26.2251 24.9459 26.2195 24.9571 26.2195H25.1365ZM26.0334 32.6998C25.9437 31.6235 26.3922 30.8387 27.2891 30.2781C27.2891 30.2669 27.2835 30.2557 27.2779 30.2445C27.2723 30.2333 27.2667 30.2221 27.2667 30.2109C26.5492 29.2691 25.6074 28.9552 24.4862 29.1345C24.1473 29.1881 23.8225 29.3125 23.4894 29.4402C23.4038 29.473 23.3176 29.5061 23.2305 29.5382C22.9839 29.6279 22.7596 29.6503 22.513 29.5606C22.2439 29.4485 21.9524 29.3363 21.6609 29.2467C21.0106 29 20.3828 29.0673 19.7549 29.3588C18.8355 29.8072 18.3422 30.5472 18.0732 31.489C17.8489 32.2738 17.8938 33.0586 18.0507 33.8434C18.2974 35.0991 18.8355 36.2203 19.6428 37.2069C19.8446 37.4536 20.0688 37.6778 20.3379 37.8572C20.6518 38.059 20.9882 38.1487 21.347 38.0366C21.6609 37.9469 21.9524 37.8572 22.2439 37.7451C22.6699 37.6105 23.096 37.5657 23.522 37.6778C23.7687 37.7451 23.9929 37.8348 24.2171 37.9245C24.5311 38.0366 24.8674 38.1263 25.2262 38.059C25.6298 37.9917 25.9213 37.7451 26.1904 37.4312C26.5716 36.9827 26.9079 36.4894 27.177 35.9736C27.3166 35.7119 27.429 35.4502 27.546 35.1779C27.5794 35.1003 27.6131 35.0218 27.6479 34.9422C26.6837 34.4713 26.1007 33.7762 26.0334 32.6998Z" fill="black"/>
</g>
<defs>
<clipPath id="clip0_106_39">
<rect width="45.5641" height="57" fill="white" transform="translate(0 0.5)"/>
</clipPath>
</defs>
</svg>
