<?xml version="1.0" standalone="no"?>
<!DOCTYPE svg PUBLIC "-//W3C//DTD SVG 20010904//EN"
 "http://www.w3.org/TR/2001/REC-SVG-20010904/DTD/svg10.dtd">
<svg version="1.0" xmlns="http://www.w3.org/2000/svg"
 width="512.000000pt" height="512.000000pt" viewBox="0 0 512.000000 512.000000"
 preserveAspectRatio="xMidYMid meet">
<metadata>
Created by potrace 1.14, written by Peter Selinger 2001-2017
</metadata>
<g transform="translate(0.000000,512.000000) scale(0.100000,-0.100000)"
fill="#000000" stroke="none">
<path d="M2138 4561 c-228 -73 -414 -361 -435 -673 l-6 -88 -149 0 c-128 0
-154 -3 -187 -20 -51 -25 -97 -82 -109 -134 -6 -22 -38 -289 -73 -592 l-62
-551 40 -54 c85 -114 1353 -1978 1353 -1988 0 -15 1517 -15 1557 0 38 14 81
56 106 104 42 81 40 95 -152 1638 -200 1609 -181 1500 -269 1562 -44 30 -44
30 -201 33 l-158 3 -6 87 c-18 253 -152 509 -323 618 -148 95 -333 98 -475 9
-21 -14 -41 -25 -44 -25 -2 0 -26 13 -52 29 -101 61 -242 78 -355 42z m265
-61 c27 -10 59 -26 73 -35 l25 -16 -51 -57 c-63 -70 -143 -228 -170 -337 -11
-44 -23 -119 -27 -167 l-6 -88 -249 0 -248 0 6 58 c24 245 103 426 240 551
123 112 266 144 407 91z m478 20 c193 -36 359 -224 423 -481 13 -51 26 -127
30 -166 l6 -73 -248 0 -249 0 -6 88 c-4 48 -16 123 -27 167 -28 110 -107 267
-170 337 l-51 57 23 15 c48 31 139 61 199 65 9 1 41 -4 70 -9z m-191 -304 c45
-92 84 -234 94 -343 l6 -73 -245 0 -246 0 7 63 c22 220 91 392 203 510 l36 39
52 -57 c29 -31 70 -94 93 -139z m154 -568 c8 -14 7 -21 -6 -34 -30 -30 -75 9
-48 42 16 18 39 15 54 -8z m550 0 c8 -14 7 -21 -6 -34 -30 -30 -75 9 -48 42
16 18 39 15 54 -8z m-614 -988 c0 -57 -52 -123 -108 -140 -30 -8 -32 -7 -32
16 0 49 48 112 100 133 36 14 40 13 40 -9z m47 -165 c27 -8 58 -24 68 -34 17
-20 16 -21 -14 -51 -66 -67 -61 -164 12 -234 l41 -39 -28 -53 c-35 -66 -96
-124 -132 -124 -14 0 -48 7 -76 16 -47 16 -54 16 -102 0 -29 -9 -65 -16 -79
-16 -41 0 -102 62 -144 147 -31 63 -37 87 -41 157 -4 68 -1 91 16 128 40 91
136 129 238 94 43 -14 53 -15 94 -2 38 13 62 19 91 25 3 0 28 -6 56 -14z"/>
<path d="M0 1772 l0 -1772 1663 0 c1627 1 1661 1 1627 20 -27 14 -38 16 -49 7
-12 -10 -14 -9 -9 5 5 12 0 18 -18 22 -14 4 -30 4 -36 0 -7 -5 -8 -2 -3 6 6
10 4 12 -9 7 -9 -4 -15 -3 -12 2 9 14 -20 32 -40 25 -14 -4 -15 -3 -5 4 8 6 9
12 3 16 -6 3 -13 2 -17 -4 -8 -13 -25 -13 -25 1 0 5 6 7 13 3 9 -5 9 -4 0 6
-10 11 -15 11 -29 -1 -10 -8 -15 -9 -11 -2 4 7 -1 14 -13 18 -11 4 -17 11 -14
17 4 6 2 8 -4 4 -6 -3 -22 -2 -37 4 -19 7 -25 15 -21 27 5 13 4 14 -9 3 -10
-8 -15 -9 -15 -1 0 6 -7 11 -16 11 -8 0 -12 4 -9 10 3 5 0 7 -9 4 -8 -3 -16 2
-19 13 -4 16 -5 16 -6 1 0 -10 -6 -18 -13 -18 -6 0 -8 3 -5 7 4 3 -8 21 -27
39 -26 25 -40 32 -60 28 -21 -3 -24 -1 -19 13 5 12 2 15 -10 10 -13 -5 -17 -1
-17 15 0 21 0 21 -22 2 -12 -10 -18 -13 -14 -6 4 7 1 12 -9 12 -8 0 -20 12
-25 26 -8 21 -13 24 -25 14 -11 -9 -17 -5 -30 21 -12 22 -19 28 -25 20 -11
-18 -24 -13 -33 12 -6 15 -10 18 -16 9 -5 -9 -14 -4 -32 15 l-24 28 24 -20 25
-20 -20 27 c-10 14 -20 22 -22 17 -2 -5 -11 -9 -19 -9 -10 0 -13 6 -9 16 3 8
2 12 -4 9 -6 -3 -10 -1 -10 4 0 6 -5 11 -11 11 -5 0 -7 -6 -4 -12 4 -7 1 -6
-7 2 -7 8 -20 15 -28 15 -9 0 -14 7 -12 19 3 15 -1 18 -18 13 -16 -4 -20 -2
-16 9 3 8 -1 14 -10 14 -9 0 -12 -5 -8 -12 4 -7 -2 -4 -14 6 -25 22 -28 28 -9
20 8 -3 14 2 14 11 0 8 -3 13 -5 10 -3 -2 -14 5 -25 18 l-19 22 6 -25 c5 -17
4 -21 -2 -12 -5 8 -13 14 -18 15 -5 1 -8 11 -8 22 2 19 2 19 -13 0 -13 -16
-15 -17 -10 -3 3 10 2 20 -3 23 -6 4 -10 1 -10 -5 0 -6 -5 -8 -10 -5 -6 4 -7
11 -4 17 4 7 2 8 -4 4 -7 -4 -20 -2 -29 4 -16 11 -16 11 -1 6 10 -3 20 0 24 7
4 7 4 9 -1 5 -4 -4 -14 -3 -21 3 -8 6 -20 9 -28 6 -11 -4 -13 -1 -9 10 5 13 2
15 -11 10 -10 -4 -15 -3 -11 3 3 6 2 10 -4 10 -6 0 -7 8 -4 18 6 14 4 15 -9 4
-17 -14 -35 -1 -23 17 3 5 1 12 -5 16 -5 3 -10 -1 -10 -9 0 -9 -5 -16 -11 -16
-5 0 -7 4 -4 10 3 5 1 10 -4 10 -6 0 -11 9 -11 21 0 11 -5 17 -10 14 -5 -3
-10 -2 -10 2 0 5 -7 18 -16 29 -15 19 -15 18 -5 -2 8 -16 7 -21 -4 -21 -8 0
-12 4 -9 8 2 4 -7 17 -22 28 -14 11 -23 24 -20 29 3 5 -1 9 -9 9 -8 0 -12 -4
-9 -9 3 -4 0 -8 -5 -8 -6 0 -11 6 -11 14 0 8 -4 18 -10 21 -6 3 -7 -1 -4 -12
3 -10 -1 -7 -9 7 -10 16 -12 27 -5 31 5 4 -2 9 -16 13 -15 4 -24 11 -21 16 4
6 -1 7 -11 3 -12 -4 -15 -3 -10 5 5 8 1 10 -10 5 -13 -5 -15 -3 -9 7 6 10 4
12 -8 7 -9 -3 -16 -2 -14 2 3 14 -53 72 -63 66 -5 -3 -7 0 -4 8 4 10 -1 15
-13 14 -10 -1 -17 3 -16 9 1 6 -4 11 -12 11 -10 0 -3 -16 19 -46 81 -113 416
-610 416 -617 0 -5 -229 -7 -508 -4 l-508 5 -40 26 c-56 37 -96 115 -101 198
-3 42 16 248 52 570 31 277 54 506 51 508 -3 3 0 15 6 27 10 19 10 20 -5 7
-15 -12 -17 -11 -17 7 0 11 -6 25 -14 32 -8 6 -16 21 -18 33 -2 15 -9 21 -20
19 -10 -2 -18 2 -18 8 0 6 -11 16 -25 22 -22 10 -23 12 -8 23 15 11 15 12 -1
18 -9 4 -16 1 -17 -6 0 -7 -4 -1 -10 11 -5 13 -6 29 -2 35 3 7 3 9 -1 5 -12
-10 -68 52 -62 68 3 7 -4 16 -15 19 -15 5 -19 13 -16 27 4 15 3 17 -9 7 -11
-9 -15 -8 -20 4 -3 9 -2 22 2 28 5 9 2 10 -9 6 -17 -6 -31 18 -20 36 4 6 0 8
-10 4 -11 -4 -14 -2 -10 8 3 8 -2 17 -10 21 -9 3 -14 15 -12 32 3 25 2 25 -12
7 -15 -19 -15 -19 -9 7 5 22 3 26 -9 22 -11 -5 -13 -2 -8 12 3 9 2 15 -3 12
-14 -9 -31 15 -29 40 1 12 -4 22 -11 22 -10 0 -26 23 -28 42 -1 4 -10 14 -21
23 -11 9 -14 13 -6 9 9 -5 12 -3 7 4 -4 7 -14 12 -22 12 -8 0 -14 6 -13 13 3
28 -2 36 -18 30 -15 -6 -16 -4 -5 9 10 13 10 17 -4 22 -10 4 -14 12 -10 22 6
15 4 15 -11 3 -15 -12 -16 -12 -10 5 5 12 1 23 -10 32 -13 10 -15 16 -6 22 9
5 5 13 -12 26 -26 19 -35 42 -12 31 6 -4 1 2 -13 13 -13 11 -29 18 -34 15 -5
-3 -6 -1 -2 6 6 9 11 9 21 1 11 -10 12 -7 2 13 -8 17 -17 23 -32 19 -18 -5
-18 -4 -6 11 12 16 12 17 -5 10 -17 -6 -17 -5 -5 10 8 10 9 17 3 17 -6 0 -14
16 -18 35 -4 22 -13 37 -26 41 -13 4 -17 9 -9 13 8 5 5 14 -9 28 -11 12 -17
31 -15 42 2 12 0 19 -6 16 -5 -4 -9 3 -9 15 0 12 -4 19 -9 16 -5 -3 -15 2 -22
11 -10 12 -10 14 -1 9 6 -4 12 -2 12 3 0 6 -5 11 -11 11 -6 0 -9 7 -6 15 4 9
-6 24 -26 40 -18 14 -27 24 -21 23 7 -2 12 2 12 7 1 6 -7 9 -16 8 -10 -1 -11
0 -5 3 19 9 16 28 -8 42 -16 10 -18 17 -10 25 16 16 13 27 -8 27 -21 0 -34 33
-19 48 10 10 -16 60 -39 75 -8 5 -11 18 -7 34 5 18 3 24 -4 19 -8 -5 -10 -2
-6 8 4 9 1 16 -6 16 -7 0 -10 6 -7 14 3 8 -1 22 -9 33 -12 16 -13 16 -8 1 3
-10 1 -18 -5 -18 -6 0 -11 12 -11 28 0 15 -5 34 -10 42 -6 10 -10 -609 -10
-1758z m115 1528 c3 -6 -1 -7 -9 -4 -18 7 -21 14 -7 14 6 0 13 -4 16 -10z
m849 -1433 c-2 -7 4 -22 16 -32 11 -10 20 -22 20 -27 0 -5 -11 3 -25 18 -26
28 -29 36 -18 47 10 11 13 8 7 -6z"/>
<path d="M1610 1151 c0 -6 5 -13 10 -16 6 -3 10 1 10 9 0 9 -4 16 -10 16 -5 0
-10 -4 -10 -9z"/>
<path d="M2375 531 c-3 -6 4 -9 15 -8 11 1 20 5 20 9 0 11 -28 10 -35 -1z"/>
</g>
</svg>
